<svg width="20" height="29" viewBox="0 0 20 29" fill="none" xmlns="http://www.w3.org/2000/svg">
<path d="M17.8917 18.0203C17.8917 18.0203 17.8217 17.7982 17.6848 17.4027C16.62 14.3848 11.442 1.31814 1.20475 0.149902C5.57043 0.737064 8.9352 4.47604 8.9352 8.99992C8.9352 13.9345 4.93459 17.9351 0 17.9351V28.9969C2.39428 28.9969 4.69121 28.5801 6.82081 27.8073C8.68878 27.1289 10.718 27.0133 12.6285 27.5579L17.3806 28.9086C18.917 29.3437 20.3377 27.926 19.9027 26.3866L18.2051 20.3963C18.0043 19.6936 17.9495 18.9573 18.0377 18.2424L17.8917 18.0203Z" fill="url(#paint0_linear)"/>
<defs>
<linearGradient id="paint0_linear" x1="2.42388" y1="0.149912" x2="20.2336" y2="1.18148" gradientUnits="userSpaceOnUse">
<stop stop-color="#DF5950"/>
<stop offset="1" stop-color="#451046"/>
</linearGradient>
</defs>
</svg>
